<svg xmlns="http://www.w3.org/2000/svg" viewBox="0 0 112.78 108.84"><defs><style>.cls-1{fill:#fff;}.cls-2{fill:none;}.cls-2,.cls-3,.cls-5{stroke:#fff;stroke-miterlimit:10;}.cls-3,.cls-5{font-size:8.8px;font-family:Calibri-Light, Calibri;font-weight:300;}.cls-3{letter-spacing:0.07em;}.cls-4{letter-spacing:0.06em;}.cls-5{letter-spacing:0.07em;}</style></defs><g id="Layer_2" data-name="Layer 2"><g id="Layer_1-2" data-name="Layer 1"><g id="Layer_1-2-2" data-name="Layer 1-2"><path class="cls-1" d="M88.66,51.52a19,19,0,0,1-3,5.72h0A18.72,18.72,0,0,1,83,60.11a25.67,25.67,0,0,0-4,4.25c-.3.39-.58.8-.86,1.21-1.32,1.89-.57,4,.4,5.8s.54,5.66-1,6.64c-1.09.66-2.07,1.54-3.07,2.17a1.53,1.53,0,0,0-.55,2c.83,2.23.64,2.63-1.29,3.75h0l-.06,0a1.54,1.54,0,0,0-.69,1,7.91,7.91,0,0,1-1.54,3.61q-.7-1.68-1.53-3.33l-.44-.89c-.4-.81-.8-1.62-1.22-2.43a.48.48,0,0,1,0-.62,1.38,1.38,0,0,0,.26-1.86c-.32-.48-.7-.92-1-1.38a9,9,0,0,1-.8-1.24c-.46-.94-.8-1.94-1.32-2.83-1-1.74-2.12-3.43-3.18-5.13a1.2,1.2,0,0,1-.18-.4,11,11,0,0,0-1.16-3.36c-.7-1.4-1.38-2.81-2.17-4.18a.41.41,0,0,0-.05-.09c-.77-1.33-1.61-2.62-2.39-4a2.11,2.11,0,0,1-.33-2.17,5.48,5.48,0,0,1,.84-1.25.55.55,0,0,0,.14-.7c-.12-.24-.24-.48-.37-.72-.35-.71-.71-1.41-1.09-2.1a.78.78,0,0,1-.08-.65A22,22,0,0,1,55.61,48a25.47,25.47,0,0,0,2-5.61,6.33,6.33,0,0,1,.37-1,2.68,2.68,0,0,1,.66-.87c.83-.68,1.7-1.29,2.56-2l1.54-1.15a.51.51,0,0,0,.07-.25c0-.33.16-.35.37-.36s.32-.1.25-.33a.34.34,0,0,1,0-.2c0-.27-.11-.57-.37-.55a2,2,0,0,0-.64.19c-.3.12-.57.27-.86.38-.57.23-1.14.43-1.71.63H59.6v-.09a2.12,2.12,0,0,0,.43-.28.62.62,0,0,0,.2-.45.35.35,0,0,0-.43-.25l-.06,0c-.26.13-.51.33-.77.46a1.33,1.33,0,0,1-.47.17,3.56,3.56,0,0,0-1,.2l-.51.29c-.26.11-.44.13-.5-.26a1.17,1.17,0,0,0-.88-1,.77.77,0,0,0-.48.11c-.16.11,0,.31.1.46a3,3,0,0,1,.16.57,7.82,7.82,0,0,0,0,1.53,3,3,0,0,1-.51,2.12c-.11.2-.25.41-.35.63a20.73,20.73,0,0,1-2,3.07,9.26,9.26,0,0,0-2,3.82,3.37,3.37,0,0,1-.29,1.12,3.86,3.86,0,0,0-.55,1.53,3.28,3.28,0,0,1-.82,1.69A3.24,3.24,0,0,0,48,50.49a.67.67,0,0,1-.2-.67c.11-.58-.18-1.09-.87-1a3,3,0,0,1-.51-.08V48l-.23.18a2.09,2.09,0,0,0-.24-.58c-.45-.64-.89-1.29-1.39-1.89a4.08,4.08,0,0,0-3.06-1.53A7.64,7.64,0,0,0,37,45.48a16.42,16.42,0,0,0-4,4,6.5,6.5,0,0,0-1.35,3.07,5.07,5.07,0,0,0,.44,2.66,5.78,5.78,0,0,1-2.66-2.92,3.74,3.74,0,0,0-1.28-1.53,5.15,5.15,0,0,1-1.53-6.23,4.69,4.69,0,0,0,0-3.22,2.26,2.26,0,0,1,.21-2.61c.94-1.54,1.87-3,2.87-4.42.19-.28.67-.32,1-.52,1.05-.71,2.24-1.2,2.17-2.88a3.54,3.54,0,0,1,1.24-2.06,22.5,22.5,0,0,1,2.42-1.93,14.56,14.56,0,0,0,4.6-.46c2.38-1.17,4.88-.92,7.34-1.22a30.09,30.09,0,0,1,3.29,0c-.13,1.08-.24,2-.41,3.32a27,27,0,0,1,2.59.8c.71.26,1.34.7,2,1,1.15.52,2.29,1,3.47,1.44a1.63,1.63,0,0,0,.76-.87c.44-1.54,1.33-1.81,2.71-1.29a25.5,25.5,0,0,0,5.55,1.65,21.88,21.88,0,0,0,4.71-.39c.69,1.39,1,2.48-.62,3.65l2.93,5.34a5.49,5.49,0,0,1,.31.59A41.8,41.8,0,0,0,78,45.88c.6,1,1.84,1.75,2.68,2.68.37.4.36,1.15.74,1.53s1.29,1.23,1.89,1.17a50.78,50.78,0,0,0,5.47-1.06A3.89,3.89,0,0,1,88.66,51.52Z"/><path class="cls-1" d="M92.4,74.41c-1.54,2.18-2.41,4.77-3.74,7.09a4.83,4.83,0,0,1-1.74,1.68,4.15,4.15,0,0,1-.6.29.69.69,0,0,1-.4,0h0c-.62-.15-1.52-.77-1.56-1.17-.14-1.38-.68-2.93.8-4.18a3.84,3.84,0,0,0,.75-2.44,2.66,2.66,0,0,1,2.33-2.78A21.65,21.65,0,0,0,93,70.1,4.48,4.48,0,0,1,92.4,74.41Z"/></g><path class="cls-1" d="M5.36,37.13a1.16,1.16,0,0,1,.36.25,1.31,1.31,0,0,1,.24.37,1.84,1.84,0,0,1,.13.45,2.44,2.44,0,0,1,0,.54,3.37,3.37,0,0,1-.1.61,5.76,5.76,0,0,1-.23.71c-.3.77-.44,1.15-.71,1.94a.76.76,0,0,1-.13.2.21.21,0,0,1-.23,0L.15,40.69A.21.21,0,0,1,0,40.5a.74.74,0,0,1,0-.26c.25-.71.38-1.06.64-1.76a5.35,5.35,0,0,1,.54-1.1,2.35,2.35,0,0,1,.53-.61,1.18,1.18,0,0,1,.56-.24,1,1,0,0,1,.57.08.9.9,0,0,1,.3.21,1.16,1.16,0,0,1,.22.31,1.6,1.6,0,0,1,.12.42,2.17,2.17,0,0,1,0,.51,2.82,2.82,0,0,1,.38-.51,1.92,1.92,0,0,1,.46-.36,1.16,1.16,0,0,1,.5-.15A.93.93,0,0,1,5.36,37.13Zm-2.78.27a.89.89,0,0,0-.39-.06.78.78,0,0,0-.38.16,1.58,1.58,0,0,0-.37.42,4.11,4.11,0,0,0-.37.78C.88,39.21.78,39.46.6,40l1.8.64c.19-.54.29-.81.49-1.34a3.19,3.19,0,0,0,.2-.74,1.45,1.45,0,0,0,0-.52.91.91,0,0,0-.19-.38A.83.83,0,0,0,2.58,37.4Zm2.5.48a.8.8,0,0,0-.48-.06,1,1,0,0,0-.45.22,1.74,1.74,0,0,0-.42.49,4.3,4.3,0,0,0-.4.83c-.21.55-.32.84-.52,1.4l1.95.7c.24-.66.36-1,.61-1.64a3.22,3.22,0,0,0,.19-.64,2.07,2.07,0,0,0,0-.55,1.09,1.09,0,0,0-.15-.45A.79.79,0,0,0,5.08,37.88Z"/><path class="cls-1" d="M8,34.85l0,0A.08.08,0,0,1,8,35a.26.26,0,0,1,0,.1.52.52,0,0,1-.07.16,1,1,0,0,1-.08.15l-.06.09-.06,0s0,0,0,0L2.71,33a0,0,0,0,1,0,0,.15.15,0,0,1,0-.07.84.84,0,0,1,0-.12,1,1,0,0,1,.07-.17l.09-.17.07-.09a.07.07,0,0,1,.06,0,0,0,0,0,1,0,0Z"/><path class="cls-1" d="M11.47,28.83s0,0,0,0,0,0,0,.06l0,.1a1.17,1.17,0,0,1-.08.13.92.92,0,0,1-.09.13.45.45,0,0,1-.07.07l-.06,0h0l-.44-.29a3.38,3.38,0,0,1,0,1,2.42,2.42,0,0,1-.31.8,2.85,2.85,0,0,1-.55.68,1.35,1.35,0,0,1-1.15.35A2.28,2.28,0,0,1,8,31.67L6.05,30.54l0,0s0,0,0-.07a.76.76,0,0,1,0-.11l.08-.16.1-.15a.35.35,0,0,1,.07-.09.09.09,0,0,1,.06,0h0L8.31,31a2,2,0,0,0,.52.22.93.93,0,0,0,.44,0,1,1,0,0,0,.4-.2,1.72,1.72,0,0,0,.35-.43,1.75,1.75,0,0,0,.25-.78,4.64,4.64,0,0,0,0-1L8,27.32a0,0,0,0,1,0,0,.08.08,0,0,1,0-.07.76.76,0,0,1,0-.11l.1-.15a.85.85,0,0,1,.1-.14l.08-.08a.09.09,0,0,1,.06,0h0Z"/><path class="cls-1" d="M12.61,21.17l0,0v0l0,0v0c.59,1.53.91,2.29,1.58,3.78a.15.15,0,0,1,0,.07.32.32,0,0,1,0,.09.37.37,0,0,1-.06.1l-.1.13-.11.13-.09.08-.07.05h-.07c-1.59-.33-2.39-.47-4-.7H9.6l0,0a.2.2,0,0,1,0-.07l.05-.09.09-.13.13-.17.09-.09.07,0h.06c1.44.25,2.15.39,3.56.71h0v0c-.63-1.31-.93-2-1.5-3.32,0,0,0,0,0-.06a.11.11,0,0,1,0-.07.37.37,0,0,1,.06-.1l.12-.15.1-.12.08-.06.05,0Z"/><path class="cls-1" d="M19,19.86a.07.07,0,0,1,0,.07A.36.36,0,0,1,19,20a1.13,1.13,0,0,1-.11.11.6.6,0,0,1-.12.11.18.18,0,0,1-.09,0,.06.06,0,0,1-.07,0L18.3,20a2.84,2.84,0,0,1-.22.82,2.68,2.68,0,0,1-.48.69,3.53,3.53,0,0,1-.53.45,1.8,1.8,0,0,1-.52.23,1.07,1.07,0,0,1-.47,0,1,1,0,0,1-.41-.22.87.87,0,0,1-.28-.5,1.23,1.23,0,0,1,.06-.62,2.69,2.69,0,0,1,.36-.72,5.43,5.43,0,0,1,.65-.77c.23-.23.34-.35.57-.57l-.22-.24a1.23,1.23,0,0,0-.34-.25.63.63,0,0,0-.38-.06.9.9,0,0,0-.41.15,2.11,2.11,0,0,0-.47.38,3.21,3.21,0,0,0-.39.49,4.08,4.08,0,0,0-.24.45,3.19,3.19,0,0,0-.13.34.69.69,0,0,1-.09.18l0,.05h-.06l-.06,0-.07,0a.44.44,0,0,1-.09-.11A.25.25,0,0,1,14,20a1.38,1.38,0,0,1,.09-.27,3.61,3.61,0,0,1,.19-.41c.09-.14.18-.29.29-.44A4.82,4.82,0,0,1,15,18.4a3.7,3.7,0,0,1,.71-.58,1.51,1.51,0,0,1,.61-.22.87.87,0,0,1,.53.08,1.85,1.85,0,0,1,.47.35Zm-1.69-.81-.65.65a3.38,3.38,0,0,0-.45.54,1.61,1.61,0,0,0-.24.47.9.9,0,0,0,0,.39.67.67,0,0,0,.18.3.57.57,0,0,0,.56.15,1.26,1.26,0,0,0,.66-.42,1.65,1.65,0,0,0,.4-.62,3.51,3.51,0,0,0,.19-.83Z"/><path class="cls-1" d="M20.77,13.66l.06.08,0,.07v.06l0,0-.1.06-.15.07a.76.76,0,0,0-.18.09l-.2.13a1.1,1.1,0,0,0-.2.23,1.11,1.11,0,0,0-.14.31,1.73,1.73,0,0,0-.08.43,5,5,0,0,0,0,.58c.65.77,1,1.15,1.63,1.93l0,0a.14.14,0,0,1,0,.06l-.06.08-.12.1a.53.53,0,0,1-.12.1l-.09.05h-.06l0,0-2.44-2.82,0-.05,0-.06.07-.08a.56.56,0,0,1,.11-.11l.13-.1.08,0h.06s0,0,0,0l.39.45a4,4,0,0,1,.06-.56,2.08,2.08,0,0,1,.14-.4,1.19,1.19,0,0,1,.18-.29,2.83,2.83,0,0,1,.25-.24l.13-.1.18-.11a.76.76,0,0,1,.18-.09l.12-.05h.06l0,0s0,0,0,0Z"/><path class="cls-1" d="M27.49,13.27a.09.09,0,0,1,0,.05l0,0-.06.06-.11.08-.12.07-.09,0H27s0,0,0,0l-.3-.45a3.14,3.14,0,0,1-.38.85,2.29,2.29,0,0,1-.63.65,2.45,2.45,0,0,1-.81.38,1.84,1.84,0,0,1-.74,0,1.74,1.74,0,0,1-.65-.3,2.82,2.82,0,0,1-.54-.55,2.58,2.58,0,0,1-.4-.77,1.69,1.69,0,0,1,.26-1.5,3.13,3.13,0,0,1,.69-.66,2.18,2.18,0,0,1,.79-.34,2.77,2.77,0,0,1,.87,0L23.94,9a.06.06,0,0,1,0,0,.14.14,0,0,1,0-.06L24,8.78l.14-.09.15-.09.1,0h.06l0,0Zm-2-1.92a3.78,3.78,0,0,0-1,0,1.64,1.64,0,0,0-.78.29,1.44,1.44,0,0,0-.47.49,1.24,1.24,0,0,0-.16.55,1.76,1.76,0,0,0,.09.55,2.12,2.12,0,0,0,.28.51,3.39,3.39,0,0,0,.4.45,1.44,1.44,0,0,0,.49.29,1.25,1.25,0,0,0,.55.06,1.38,1.38,0,0,0,.6-.25,1.31,1.31,0,0,0,.28-.24,2.05,2.05,0,0,0,.24-.32,4.08,4.08,0,0,0,.19-.42,4.73,4.73,0,0,0,.17-.56Z"/><path class="cls-1" d="M35.8,8.86l0,.1a.17.17,0,0,1,0,.07.09.09,0,0,1,0,.06l-.06,0c-1.16.48-1.74.74-2.88,1.28a.33.33,0,0,1-.2,0,.23.23,0,0,1-.18-.13C31.62,8.58,31.19,7.72,30.33,6a.21.21,0,0,1,0-.23.38.38,0,0,1,.17-.14c1.23-.59,1.85-.87,3.11-1.39h.07a.1.1,0,0,1,.07,0l.06,0a.36.36,0,0,1,0,.09.29.29,0,0,1,0,.09.11.11,0,0,1,0,.08.1.1,0,0,1,0,.05.15.15,0,0,1-.06,0c-1.11.45-1.66.69-2.75,1.21.33.67.49,1,.82,1.69.91-.43,1.36-.64,2.29-1h.14l.06.06a.19.19,0,0,1,0,.09l0,.08a.19.19,0,0,1,0,.08s0,0,0,0l-.07,0C33.4,7.32,33,7.52,32,8c.37.76.56,1.14.93,1.91,1-.48,1.54-.71,2.59-1.14a.08.08,0,0,1,.07,0h.06l.06,0A.41.41,0,0,1,35.8,8.86Z"/><path class="cls-1" d="M41.39,7.08v0l0,0-.07,0a.4.4,0,0,1-.13,0l-.13,0h-.15l0,0-.16-.51a3.41,3.41,0,0,1-.59.7,2,2,0,0,1-.77.45,2.36,2.36,0,0,1-.87.13,1.78,1.78,0,0,1-.7-.2,1.85,1.85,0,0,1-.53-.48,2.56,2.56,0,0,1-.37-.67,2.28,2.28,0,0,1-.18-.85,1.63,1.63,0,0,1,.15-.74,1.68,1.68,0,0,1,.49-.61A2.61,2.61,0,0,1,38.14,4,2.26,2.26,0,0,1,39,3.91a2.72,2.72,0,0,1,.84.21c-.27-.86-.4-1.29-.67-2.14a.07.07,0,0,1,0-.05s0,0,0-.05l.09,0,.16-.05a.62.62,0,0,1,.16,0h.1l.07,0,0,0C40.44,3.9,40.75,5,41.39,7.08ZM40,4.69a3.81,3.81,0,0,0-.93-.32,1.62,1.62,0,0,0-.82.06,1.31,1.31,0,0,0-.58.34,1.19,1.19,0,0,0-.29.48,1.26,1.26,0,0,0-.06.55,2.17,2.17,0,0,0,.13.56,3.36,3.36,0,0,0,.26.54,1.57,1.57,0,0,0,.39.42,1.07,1.07,0,0,0,.5.21,1.34,1.34,0,0,0,.64-.07,1.66,1.66,0,0,0,.33-.15,1.36,1.36,0,0,0,.31-.24,3.63,3.63,0,0,0,.3-.35c.09-.14.2-.3.3-.48Z"/><path class="cls-1" d="M47.48,5.68a.06.06,0,0,1,0,0s0,0,0,0l-.09,0-.13,0-.15,0H47l0,0a.08.08,0,0,1,0,0l-.1-.52a3,3,0,0,1-.68.66,2.07,2.07,0,0,1-.72.31,2.13,2.13,0,0,1-.78,0A1.3,1.3,0,0,1,44,6.06a1.18,1.18,0,0,1-.39-.41A2.18,2.18,0,0,1,43.4,5l-.55-2.18v0a.12.12,0,0,1,0,0l.09,0,.15,0,.16,0h.1l.06,0s0,0,0,0L44,4.83a2.11,2.11,0,0,0,.2.53,1.12,1.12,0,0,0,.29.32.84.84,0,0,0,.39.15,1.22,1.22,0,0,0,.5,0A1.49,1.49,0,0,0,46,5.47a3.56,3.56,0,0,0,.63-.72l-.5-2.62a.09.09,0,0,1,0,0s0,0,0,0l.1,0,.16,0,.16,0a.17.17,0,0,1,.1,0l.06,0a.08.08,0,0,1,0,.05C47.08,3.48,47.21,4.21,47.48,5.68Z"/><path class="cls-1" d="M53.13,4.43v.09a.15.15,0,0,1,0,.07s0,0,0,0L53,4.73l-.22.15a2.15,2.15,0,0,1-.34.17,3.93,3.93,0,0,1-.41.14,3.55,3.55,0,0,1-.47.08,2.74,2.74,0,0,1-.87,0,1.7,1.7,0,0,1-.67-.3,1.65,1.65,0,0,1-.47-.57,2.64,2.64,0,0,1-.25-.82,2.22,2.22,0,0,1,0-.94,1.68,1.68,0,0,1,.39-.69,1.91,1.91,0,0,1,.65-.44,2.93,2.93,0,0,1,.86-.21,3.73,3.73,0,0,1,.47,0,2.62,2.62,0,0,1,.43.06l.35.1a1.1,1.1,0,0,1,.22.11l.1.07.05.06a.64.64,0,0,1,0,.07.25.25,0,0,1,0,.09.21.21,0,0,1,0,.17.14.14,0,0,1-.1,0A.28.28,0,0,1,52.59,2a2.23,2.23,0,0,0-.3-.13,2.1,2.1,0,0,0-.44-.13,2.31,2.31,0,0,0-.6,0,1.41,1.41,0,0,0-1,.53A1.59,1.59,0,0,0,50,3.44a2.12,2.12,0,0,0,.18.67,1.43,1.43,0,0,0,.35.45A1.35,1.35,0,0,0,51,4.8a2,2,0,0,0,.61,0,1.78,1.78,0,0,0,.54-.13,3,3,0,0,0,.4-.2l.28-.2A.31.31,0,0,1,53,4.21h0a.08.08,0,0,1,0,0,.11.11,0,0,1,0,.07A.36.36,0,0,1,53.13,4.43Z"/><path class="cls-1" d="M58.32,4.85a.07.07,0,0,1,0,.06l-.09,0H57.9a.23.23,0,0,1-.1,0,.06.06,0,0,1,0-.06V4.42a2.37,2.37,0,0,1-.7.42,2.31,2.31,0,0,1-.78.16,3.23,3.23,0,0,1-.66-.06,1.64,1.64,0,0,1-.5-.21A.94.94,0,0,1,54.67,4a.87.87,0,0,1,.14-.54,1.26,1.26,0,0,1,.45-.4A2.72,2.72,0,0,1,56,2.77a4.68,4.68,0,0,1,1-.09h.77V2.36a1.33,1.33,0,0,0-.06-.42.72.72,0,0,0-.21-.31,1,1,0,0,0-.39-.18,2.32,2.32,0,0,0-.57-.06,3.29,3.29,0,0,0-.59.07,3.11,3.11,0,0,0-.46.15l-.32.14a.62.62,0,0,1-.18.07h-.06a.05.05,0,0,1-.05,0l0-.05a.25.25,0,0,1,0-.09.61.61,0,0,1,0-.14.24.24,0,0,1,.08-.1,1,1,0,0,1,.24-.13,3.09,3.09,0,0,1,.4-.14A3.52,3.52,0,0,1,56,1,3.27,3.27,0,0,1,56.54,1a3.52,3.52,0,0,1,.87.09,1.38,1.38,0,0,1,.57.27,1,1,0,0,1,.3.43,1.49,1.49,0,0,1,.08.57C58.35,3.34,58.34,3.84,58.32,4.85Zm-.6-1.77h-.88a3.44,3.44,0,0,0-.68.06,1.72,1.72,0,0,0-.47.16.79.79,0,0,0-.28.26.73.73,0,0,0-.08.33.61.61,0,0,0,.28.5,1.27,1.27,0,0,0,.73.18A1.83,1.83,0,0,0,57,4.42,3,3,0,0,0,57.71,4Z"/><path class="cls-1" d="M64.94,1.51c.08,0,.14,0,.16.07a.14.14,0,0,1,0,.13c-.19,1.44-.29,2.16-.48,3.6a.08.08,0,0,1,0,0l-.06,0h-.24l-.15,0-.09,0s0,0,0,0,0,0,0,0c.16-1.34.24-2,.41-3.36-1.09-.13-1.64-.18-2.73-.26-.07.9-.1,1.34-.17,2.24a1.13,1.13,0,0,0,.1.65.63.63,0,0,0,.54.27.88.88,0,0,0,.23,0l.18,0,.14,0a.18.18,0,0,1,.1,0h0s0,0,0,0a.14.14,0,0,1,0,.06v.09c0,.06,0,.1,0,.14a.27.27,0,0,1-.07.08l-.12,0-.17,0h-.42a2.11,2.11,0,0,1-.58-.12,1,1,0,0,1-.39-.25,1,1,0,0,1-.2-.39,2.37,2.37,0,0,1,0-.55l.15-2.3-.74-.05a.17.17,0,0,1-.12-.05.25.25,0,0,1,0-.16s0-.06,0-.09a.09.09,0,0,1,0-.06.1.1,0,0,1,.05,0h.07l.74,0,.06-.91a.08.08,0,0,1,0,0,.09.09,0,0,1,.06,0l.1,0h.33l.1,0,.05,0a.09.09,0,0,1,0,0l-.07.91C63,1.29,63.67,1.35,64.94,1.51ZM65.41.39c0,.14-.06.22-.13.26a.65.65,0,0,1-.36,0,.59.59,0,0,1-.32-.1.31.31,0,0,1-.06-.28A.29.29,0,0,1,64.66,0,.63.63,0,0,1,65,0a.59.59,0,0,1,.33.11A.29.29,0,0,1,65.41.39Z"/><path class="cls-1" d="M71.62,4.69a2.12,2.12,0,0,1-.35.76,1.8,1.8,0,0,1-.58.52,2,2,0,0,1-.8.26,3,3,0,0,1-1-.06A3.2,3.2,0,0,1,68,5.85a1.89,1.89,0,0,1-.6-.51,1.65,1.65,0,0,1-.3-.69,2.31,2.31,0,0,1,0-.83A2,2,0,0,1,67.35,3a1.58,1.58,0,0,1,.56-.56,1.94,1.94,0,0,1,.83-.28,2.91,2.91,0,0,1,1.08.06,3.07,3.07,0,0,1,1,.35,1.84,1.84,0,0,1,.62.54,1.5,1.5,0,0,1,.27.71A2,2,0,0,1,71.62,4.69ZM71,4.58A2.16,2.16,0,0,0,71,4a1.37,1.37,0,0,0-.15-.56A1.27,1.27,0,0,0,70.45,3a2,2,0,0,0-.76-.29,2.11,2.11,0,0,0-.78,0,1.31,1.31,0,0,0-.58.23,1.34,1.34,0,0,0-.39.43,1.94,1.94,0,0,0-.21.6,2.1,2.1,0,0,0,0,.61,1.3,1.3,0,0,0,.16.55,1.42,1.42,0,0,0,.42.43,2,2,0,0,0,.72.27,2.12,2.12,0,0,0,.74,0,1.61,1.61,0,0,0,.57-.21,1.46,1.46,0,0,0,.4-.42A1.87,1.87,0,0,0,71,4.58Z"/><path class="cls-1" d="M76.82,8.26l0,0-.06,0-.1,0-.14,0-.14-.06-.08,0a.05.05,0,0,1,0-.05,0,0,0,0,1,0,0L77,6a2,2,0,0,0,.13-.55A1.16,1.16,0,0,0,77,5a.87.87,0,0,0-.27-.34,1.19,1.19,0,0,0-.46-.25,1.6,1.6,0,0,0-.79,0,3.54,3.54,0,0,0-.94.33c-.31,1-.47,1.53-.79,2.55,0,0,0,0,0,0h-.15l-.15,0-.14,0-.08,0s0,0,0,0a0,0,0,0,1,0,0c.42-1.42.64-2.14,1.07-3.56a.05.05,0,0,1,0,0,.08.08,0,0,1,.06,0h.1l.15,0,.15,0,.08.05,0,0v0l-.16.51a2.85,2.85,0,0,1,1-.25,2.31,2.31,0,0,1,.84.1,2.62,2.62,0,0,1,.75.39,1.52,1.52,0,0,1,.4.49,1.21,1.21,0,0,1,.1.56,1.94,1.94,0,0,1-.15.66C77.29,7,77.14,7.42,76.82,8.26Z"/><path class="cls-1" d="M82.67,10.79s0,0,0,0h-.06l-.1,0-.14-.06-.13-.07-.08-.06a.09.09,0,0,1,0-.06.06.06,0,0,1,0,0l2.3-4.63,0,0h.07l.11,0,.14.06.15.08.08.07s0,0,0,.06v0C84.08,8,83.61,9,82.67,10.79Z"/><path class="cls-1" d="M88.26,14s0,0,0,0h-.06l-.09,0L87.94,14l-.12-.09-.07-.07s0,0,0,0a.08.08,0,0,1,0-.05L89,11.84a2.14,2.14,0,0,0,.25-.51,1.26,1.26,0,0,0,0-.43,1,1,0,0,0-.19-.4,1.4,1.4,0,0,0-.4-.35,1.58,1.58,0,0,0-.76-.23,4.12,4.12,0,0,0-1,.1c-.54.93-.81,1.39-1.36,2.31l0,0h-.06l-.1,0-.13-.07a.74.74,0,0,1-.13-.08.22.22,0,0,1-.07-.06.09.09,0,0,1,0-.06.06.06,0,0,1,0,0c.74-1.3,1.12-1.94,1.86-3.24l0,0h.07l.09,0a.9.9,0,0,1,.14.07l.13.08.07.07a.09.09,0,0,1,0,.05.09.09,0,0,1,0,0l-.27.45a3.06,3.06,0,0,1,1,0,2.14,2.14,0,0,1,.8.3,2.44,2.44,0,0,1,.65.55,1.41,1.41,0,0,1,.28.58,1.26,1.26,0,0,1,0,.58,2.13,2.13,0,0,1-.3.61Z"/><path class="cls-1" d="M93.91,11.92a.31.31,0,0,1-.24.16.69.69,0,0,1-.33-.16.77.77,0,0,1-.24-.26.36.36,0,0,1,.08-.27.31.31,0,0,1,.24-.16.69.69,0,0,1,.33.16.6.6,0,0,1,.24.26A.28.28,0,0,1,93.91,11.92Zm-3.09,3.92s0,0,0,0h-.06l-.09,0-.13-.09-.12-.1-.06-.07a.07.07,0,0,1,0-.06s0,0,0,0l2.22-3,0,0h.06l.1,0,.13.1.13.1.07.08a.14.14,0,0,1,0,.06.09.09,0,0,1,0,0Z"/><path class="cls-1" d="M98.39,17.29a.24.24,0,0,1,.1.16.19.19,0,0,1-.06.13L95.9,20.2l0,0H95.8l-.08-.06a.9.9,0,0,1-.12-.1l-.11-.11a.9.9,0,0,1,0-.09.14.14,0,0,1,0-.06l0,0,2.33-2.47c-.83-.79-1.25-1.17-2.11-1.91l-1.47,1.71a1.17,1.17,0,0,0-.3.6.7.7,0,0,0,.29.55l.19.14.17.09.13.05.09.06s0,0,0,0a.09.09,0,0,1,0,0s0,0,0,.06l-.06.07a.44.44,0,0,1-.11.09.12.12,0,0,1-.1,0l-.12,0-.17-.09a1.4,1.4,0,0,1-.18-.12l-.17-.14a2.35,2.35,0,0,1-.41-.45,1.15,1.15,0,0,1-.17-.44,1,1,0,0,1,.07-.44,1.87,1.87,0,0,1,.29-.47l1.49-1.78-.59-.49a.14.14,0,0,1-.06-.12.24.24,0,0,1,.06-.14.23.23,0,0,1,.07-.07l.07,0h.06l.07,0,.59.49.59-.7,0,0h.06l.1,0,.13.11.12.11a.18.18,0,0,1,.07.09.14.14,0,0,1,0,.06.05.05,0,0,1,0,0l-.59.7C96.94,15.91,97.43,16.36,98.39,17.29Zm1-.61a.31.31,0,0,1-.25.12.63.63,0,0,1-.31-.2.61.61,0,0,1-.21-.29.29.29,0,0,1,.11-.26.3.3,0,0,1,.26-.13.68.68,0,0,1,.31.2.74.74,0,0,1,.21.3A.31.31,0,0,1,99.44,16.68Z"/><path class="cls-1" d="M100,24.67a.06.06,0,0,1-.07,0,.2.2,0,0,1-.09-.05,1.11,1.11,0,0,1-.11-.11.77.77,0,0,1-.09-.13.26.26,0,0,1,0-.1.06.06,0,0,1,0-.07L100,24a2.84,2.84,0,0,1-.8-.29,2.44,2.44,0,0,1-.66-.54,3.18,3.18,0,0,1-.41-.56,1.84,1.84,0,0,1-.19-.54,1,1,0,0,1,0-.47.94.94,0,0,1,.25-.4.88.88,0,0,1,.51-.25,1.24,1.24,0,0,1,.61.1,2.9,2.9,0,0,1,.69.42,5.36,5.36,0,0,1,.73.71c.22.25.32.38.53.63l.25-.21a1,1,0,0,0,.27-.33.6.6,0,0,0,.09-.37.94.94,0,0,0-.12-.43,2.69,2.69,0,0,0-.36-.51,3.62,3.62,0,0,0-.46-.43,2.59,2.59,0,0,0-.43-.26l-.33-.17A.57.57,0,0,1,100,20a.1.1,0,0,1,0-.05.13.13,0,0,1,0-.06.14.14,0,0,1,0-.06.34.34,0,0,1,.06-.06.33.33,0,0,1,.11-.08.21.21,0,0,1,.14,0,1.35,1.35,0,0,1,.26.11,4.09,4.09,0,0,1,.39.22c.13.1.27.2.42.33a4.89,4.89,0,0,1,.4.39,3.65,3.65,0,0,1,.53.76,1.63,1.63,0,0,1,.19.64.94.94,0,0,1-.12.53,1.43,1.43,0,0,1-.38.45Zm.92-1.65c-.24-.29-.37-.43-.61-.71a3.93,3.93,0,0,0-.51-.5,1.49,1.49,0,0,0-.46-.27.77.77,0,0,0-.38-.06.58.58,0,0,0-.31.16.61.61,0,0,0-.19.55,1.37,1.37,0,0,0,.37.7,2,2,0,0,0,.6.45,3.06,3.06,0,0,0,.82.25Z"/><path class="cls-1" d="M107.1,28a.28.28,0,0,1,.06.19.17.17,0,0,1-.08.11l-3.06,2h0l0,0a.29.29,0,0,1-.07-.08l-.1-.13-.08-.15,0-.09a.08.08,0,0,1,0-.07.05.05,0,0,1,0,0l2.83-1.86c-.65-1-1-1.52-1.68-2.49L103,26.69a1,1,0,0,0-.42.52.7.7,0,0,0,.17.62.77.77,0,0,0,.16.19,1,1,0,0,0,.15.14l.11.09a.3.3,0,0,1,.08.08.08.08,0,0,1,0,.05s0,0,0,.05l0,.05-.07.05a.25.25,0,0,1-.12.07.14.14,0,0,1-.11,0,.28.28,0,0,1-.11-.07.58.58,0,0,1-.15-.13,1.29,1.29,0,0,1-.15-.17l-.14-.18a3,3,0,0,1-.31-.57A1.19,1.19,0,0,1,102,27a1,1,0,0,1,.16-.43,1.57,1.57,0,0,1,.39-.38l1.85-1.4c-.19-.26-.28-.39-.48-.64a.17.17,0,0,1,0-.14.21.21,0,0,1,.09-.13l.08-.05h.07l.07,0s0,0,0,.05l.49.65.73-.55h0a.07.07,0,0,1,.06,0,.32.32,0,0,1,.09.08l.1.14a.77.77,0,0,1,.1.15.31.31,0,0,1,.05.1.17.17,0,0,1,0,.07l0,0-.74.54C106,26.24,106.35,26.82,107.1,28Zm1.17-.33a.3.3,0,0,1-.28,0c-.08,0-.16-.13-.26-.29a.73.73,0,0,1-.15-.35.3.3,0,0,1,.17-.23.31.31,0,0,1,.28-.06.69.69,0,0,1,.27.29.8.8,0,0,1,.14.35C108.44,27.54,108.38,27.61,108.27,27.69Z"/><path class="cls-1" d="M110.63,34.66h-.11c-1.65-.13-2.48-.16-4.11-.18l-.07,0-.07-.06a.41.41,0,0,1-.07-.11,1,1,0,0,1-.09-.15L106,34l-.05-.12a.34.34,0,0,1,0-.09.14.14,0,0,1,0-.07c.91-1.38,1.35-2.08,2.2-3.52l0-.05,0,0s0,0,0,0h0l.06,0a.35.35,0,0,1,.06.09.56.56,0,0,1,.09.14,1.2,1.2,0,0,1,.1.19l.05.12a.11.11,0,0,1,0,.08.14.14,0,0,1,0,.06c-.79,1.25-1.19,1.87-2,3.08v0h0c1.45,0,2.18,0,3.65,0h.06a.17.17,0,0,1,.06.06.43.43,0,0,1,.07.1l.1.19a.77.77,0,0,1,.06.15l0,.1s0,0,0,.06A.08.08,0,0,1,110.63,34.66Z"/><path class="cls-1" d="M111.64,41.64a.21.21,0,0,1-.23,0,.8.8,0,0,1-.13-.21c-.52-1.49-.8-2.22-1.4-3.64a1.67,1.67,0,0,0-.53.34,1.06,1.06,0,0,0-.31.49,1.67,1.67,0,0,0-.06.68,3.79,3.79,0,0,0,.24.9,4.85,4.85,0,0,0,.29.64l.27.47.22.32a.77.77,0,0,1,.12.18.17.17,0,0,1,0,.07.14.14,0,0,1,0,.06s0,0-.06,0L110,42h-.16l0,0a1,1,0,0,1-.13-.16,3.71,3.71,0,0,1-.24-.36c-.09-.15-.19-.33-.29-.53a5.89,5.89,0,0,1-.3-.67,5.45,5.45,0,0,1-.3-1.11,2.47,2.47,0,0,1,0-.91,1.77,1.77,0,0,1,.37-.72,2.37,2.37,0,0,1,.73-.51,1.75,1.75,0,0,1,.85-.17,1.65,1.65,0,0,1,.79.24,2.54,2.54,0,0,1,.69.63,4.11,4.11,0,0,1,.54,1,3.77,3.77,0,0,1,.27,1.12,2.35,2.35,0,0,1-.09.86,1.42,1.42,0,0,1-.37.6,1.57,1.57,0,0,1-.57.34Zm-.12-.8a1,1,0,0,0,.72-.72,2.06,2.06,0,0,0-.15-1.34,2.32,2.32,0,0,0-.38-.68,1.72,1.72,0,0,0-.46-.41,1.23,1.23,0,0,0-.51-.17,1.35,1.35,0,0,0-.49.06C110.79,38.86,111,39.51,111.52,40.84Z"/><path class="cls-2" d="M91.39,52.63h17.9a51.61,51.61,0,0,0-101.62,0H25"/><text class="cls-3" transform="translate(8.08 61.49)">E<tspan class="cls-4" x="4.92" y="0">s</tspan><tspan x="8.83" y="0">t </tspan></text><text class="cls-5" transform="translate(89.4 61.75)">2019</text><path class="cls-2" d="M91.44,65.79h17.9a51.61,51.61,0,0,1-101.61,0H25.09"/></g></g></svg>