<?xml version="1.0" encoding="UTF-8"?>
<svg width="817px" height="408px" viewBox="0 0 817 408" version="1.1" xmlns="http://www.w3.org/2000/svg" xmlns:xlink="http://www.w3.org/1999/xlink">
    <!-- Generator: Sketch 52.6 (67491) - http://www.bohemiancoding.com/sketch -->
    <title>nuclear-blast</title>
    <desc>Created with Sketch.</desc>
    <g id="Page-1" stroke="none" stroke-width="1" fill="none" fill-rule="evenodd">
        <g id="A4" transform="translate(-233.000000, -188.000000)">
            <g id="nuclear-blast" transform="translate(233.445420, 187.699944)">
                <path d="M408,0.436306278 C633.204768,0.436306278 815.86375,183.095288 815.86375,408.300056 C815.86375,633.504824 633.204768,816.163806 408,816.163806 C182.795232,816.163806 0.13625031,633.504824 0.13625031,408.300056 C0.13625031,183.095288 182.795232,0.436306278 408,0.436306278 Z M417.8,393.8 C410.1,357.7 410.7,294.2 425.8,258.1 C462.6,256.9 490.1,252.1 490.1,246.4 C490.1,239.8 453.3,234.4 408,234.4 C362.6,234.4 325.9,239.8 325.9,246.4 C325.9,251.9 351.1,256.5 385.4,257.9 C396.6,302.4 399.2,355.2 391.4,391.6 C385.2,420.5 263.3,408.4 235.1,408.4 C280.6,450.4 341.3,472 408,472 C474.7,472 535.4,450.4 580.9,408.4 C549.7,408.4 424.3,424.3 417.8,393.8 Z" id="Path-2" fill="#D6FFFF"></path>
                <path d="M408,151.1 C550.014776,151.1 665.200056,266.28528 665.200056,408.300056 C665.200056,550.314832 550.014776,665.500112 408,665.500112 C265.985224,665.500112 150.799944,550.314832 150.799944,408.300056 C150.799944,266.28528 265.985224,151.1 408,151.1 Z M416.167778,396.215031 C409.750238,366.127604 410.250306,313.203735 422.835352,283.116307 C453.506193,282.116171 476.425978,278.115627 476.425978,273.36498 C476.425978,267.864232 445.755138,263.363619 408,263.363619 C370.161518,263.363619 339.574022,267.864232 339.574022,273.36498 C339.574022,277.948938 360.57688,281.782793 389.164103,282.949618 C398.498707,320.037998 400.665669,364.043987 394.164784,394.381449 C388.997414,418.46806 287.400255,408.383354 263.897057,408.383354 C301.818884,443.388118 352.409102,461.390567 408,461.390567 C463.590898,461.390567 514.181116,443.388118 552.102943,408.383354 C526.099405,408.383354 421.585182,421.635157 416.167778,396.215031 Z" id="Path-2" fill="#ADE0F2"></path>
                <path d="M540.3,68.1 C525.8,68.1 512.9,74.9 504.6,85.4 C502.1,73 491.2,63.7 478.1,63.7 C472.2,63.7 466.8,65.6 462.4,68.7 C461.1,61.9 456.1,56.4 449.6,54.3 L449.6,54.1 C449.6,31.1 430.9,12.4 407.9,12.4 C384.8,12.4 366.2,31.1 366.2,54.1 C366.2,56 366.3,57.8 366.6,59.7 C364.6,59.4 362.5,59.3 360.4,59.3 C338.3,59.3 320.1,76.2 318.1,97.8 C305.5,100.1 296,111.2 296,124.4 C296,137.8 305.7,148.9 318.4,151.1 L565.8,151.1 C577.9,143 585.9,129.1 585.9,113.4 C585.7,88.4 565.4,68.1 540.3,68.1 Z" id="Path" fill="#99DBF0"></path>
                <path d="M457.5,141.9 L267.4,141.9 C257.6,143.6 250.2,152.1 250.2,162.4 C250.2,172.6 257.5,181.1 267.2,182.9 C268.7,199.5 282.7,212.5 299.7,212.5 C301.3,212.5 302.9,212.4 304.5,212.2 C304.3,213.6 304.2,215 304.2,216.5 C304.2,234.2 318.6,248.6 336.3,248.6 C354,248.6 368.4,234.2 368.4,216.5 L368.4,216.4 C373.4,214.8 377.2,210.6 378.3,205.3 C381.7,207.7 385.9,209.2 390.4,209.2 C400.5,209.2 408.9,202 410.8,192.5 C417.2,200.6 427.1,205.8 438.2,205.8 C457.5,205.8 473.1,190.2 473.1,170.9 C472.9,158.8 466.8,148.2 457.5,141.9 Z" id="Path" fill="#99DBF0"></path>
                <path d="M408,122.7 C242.7,122.7 243.3,218.9 243.3,241.5 L243.299984,241.6 L572.6,241.6 L572.6,241.5 C572.7,218.9 573.3,122.7 408,122.7 Z" id="Path" fill="#1F295C"></path>
                <path d="M408,200.6 C317.1,200.6 243.4,218.9 243.4,241.5 C243.4,264.1 317.1,282.4 408,282.4 C498.9,282.4 572.7,264.1 572.7,241.5 C572.7,218.9 498.9,200.6 408,200.6 Z" id="Path" fill="#70CCEB"></path>
                <path d="M417.8,389.8 C410.1,353.7 410.7,294.2 425.8,258.1 C462.6,256.9 490.1,252.1 490.1,246.4 C490.1,239.8 453.3,234.4 408,234.4 C362.6,234.4 325.9,239.8 325.9,246.4 C325.9,251.9 351.1,256.5 385.4,257.9 C396.6,302.4 399.2,355.2 391.4,391.6 C385.2,420.5 263.3,408.4 235.1,408.4 C280.6,450.4 341.3,472 408,472 C474.7,472 535.4,450.4 580.9,408.4 C549.7,408.4 424.3,420.3 417.8,389.8 Z" id="Path" fill="#1F295C"></path>
                <path d="M413.7,317.6 C413.2,325 413,332.5 413,339.9 L395.9,339.9 C395.8,332.6 395.5,325.2 394.9,317.7 C351.6,319.1 318.2,328.3 318.2,339.4 C318.2,351.5 357.7,361.3 406.5,361.3 C455.3,361.3 494.8,351.5 494.8,339.4 C494.8,327.9 459.1,318.5 413.7,317.6 Z" id="Path" fill="#85D4ED"></path>
                <path d="M406.5,335.7 C382.2,335.7 362.4,338.6 362.4,342.1 C362.4,345.6 382.1,348.5 406.5,348.5 C430.8,348.5 450.5,345.6 450.5,342.1 C450.5,338.5 430.8,335.7 406.5,335.7 Z" id="Path" fill="#1F295C"></path>
            </g>
        </g>
    </g>
</svg>