<svg xmlns="http://www.w3.org/2000/svg" viewBox="0 0 89.42 63.95"><defs><style>.cls-1{fill:#fff;}</style></defs><g id="Layer_2" data-name="Layer 2"><g id="Layer_1-2" data-name="Layer 1"><g id="Layer_1-2-2" data-name="Layer 1-2"><path class="cls-1" d="M66.08,25.75a18.1,18.1,0,0,1-2.88,5.59h0a18.34,18.34,0,0,1-2.62,2.81,24.91,24.91,0,0,0-3.92,4.16c-.29.38-.57.78-.84,1.18-1.29,1.85-.55,3.89.39,5.68s.52,5.53-1,6.49c-1.06.65-2,1.5-3,2.12a1.51,1.51,0,0,0-.54,2c.82,2.19.63,2.58-1.25,3.68h0l-.06,0a1.48,1.48,0,0,0-.67,1A7.74,7.74,0,0,1,48.21,64c-.46-1.09-1-2.17-1.49-3.25l-.43-.87c-.39-.79-.79-1.58-1.19-2.37a.48.48,0,0,1,0-.62A1.37,1.37,0,0,0,45.36,55c-.32-.46-.69-.9-1-1.35a8.53,8.53,0,0,1-.77-1.21c-.45-.92-.78-1.89-1.29-2.76-1-1.71-2.06-3.36-3.09-5a1,1,0,0,1-.18-.39A11,11,0,0,0,37.88,41c-.67-1.36-1.34-2.74-2.11-4.08a.41.41,0,0,0-.05-.09c-.75-1.3-1.56-2.56-2.33-3.87a2.08,2.08,0,0,1-.32-2.13,5.22,5.22,0,0,1,.82-1.22.53.53,0,0,0,.13-.68c-.11-.24-.23-.48-.35-.71-.35-.69-.7-1.37-1.07-2.05a.73.73,0,0,1-.07-.64,20,20,0,0,1,1.34-3.25,25.58,25.58,0,0,0,1.93-5.49,5.77,5.77,0,0,1,.36-1,2.69,2.69,0,0,1,.64-.86c.81-.65,1.66-1.26,2.5-1.9l1.5-1.13a.46.46,0,0,0,.07-.24c0-.33.15-.34.36-.36s.31-.09.24-.31a.34.34,0,0,1,0-.2c0-.27-.11-.55-.36-.54a2.28,2.28,0,0,0-.63.18c-.28.12-.55.27-.83.38-.56.22-1.11.42-1.67.61h-.22v-.09a1.88,1.88,0,0,0,.42-.27.68.68,0,0,0,.2-.43.35.35,0,0,0-.43-.25l-.05,0c-.26.12-.5.32-.75.45a1.33,1.33,0,0,1-.47.17,3.42,3.42,0,0,0-.94.19c-.17.09-.33.19-.49.29s-.43.12-.49-.26a1.14,1.14,0,0,0-.86-1,.8.8,0,0,0-.47.1c-.16.11,0,.3.1.45a2.73,2.73,0,0,1,.15.56,9.39,9.39,0,0,0,0,1.5,2.87,2.87,0,0,1-.49,2.07c-.11.2-.24.4-.35.61a20.31,20.31,0,0,1-1.94,3,9,9,0,0,0-2,3.73,3.5,3.5,0,0,1-.28,1.1,3.87,3.87,0,0,0-.54,1.5,3.3,3.3,0,0,1-.79,1.65,3.21,3.21,0,0,0-.86-1.79.67.67,0,0,1-.19-.66c.1-.57-.18-1.06-.85-1a2.87,2.87,0,0,1-.5-.07v-.71l-.22.18a2,2,0,0,0-.24-.57c-.43-.63-.87-1.26-1.35-1.84a3.94,3.94,0,0,0-3-1.5,7.35,7.35,0,0,0-4.36,1.23,16,16,0,0,0-3.89,3.94,6.54,6.54,0,0,0-1.32,3A4.93,4.93,0,0,0,11,29.38a5.64,5.64,0,0,1-2.6-2.85A3.77,3.77,0,0,0,7.13,25a5.06,5.06,0,0,1-1.5-6.09,4.49,4.49,0,0,0,0-3.15,2.23,2.23,0,0,1,.21-2.56c.91-1.5,1.82-2.91,2.8-4.32.18-.27.65-.31.95-.51,1-.69,2.19-1.17,2.11-2.82a3.51,3.51,0,0,1,1.21-2,23.94,23.94,0,0,1,2.37-1.89,14.09,14.09,0,0,0,4.48-.45C22.08.09,24.52.33,26.91,0Q28.52,0,30.12,0c-.13,1.06-.24,2-.4,3.24.63.19,1.6.43,2.52.79.69.25,1.31.69,2,1,1.12.51,2.23,1,3.38,1.41a1.6,1.6,0,0,0,.75-.86c.42-1.5,1.29-1.77,2.63-1.26A24.42,24.42,0,0,0,46.37,6,20.79,20.79,0,0,0,51,5.58c.68,1.37,1,2.43-.59,3.57l2.85,5.23a5.28,5.28,0,0,1,.3.58,44.13,44.13,0,0,0,2.21,5.27c.59,1,1.79,1.71,2.62,2.62.36.39.34,1.13.72,1.5s1.25,1.2,1.84,1.14a51.13,51.13,0,0,0,5.33-1A3.75,3.75,0,0,1,66.08,25.75Z"/><path class="cls-1" d="M69.73,48.14c-1.5,2.13-2.35,4.66-3.65,6.93a4.77,4.77,0,0,1-1.69,1.65,4,4,0,0,1-.59.28.62.62,0,0,1-.38,0h0c-.6-.15-1.48-.76-1.52-1.14-.13-1.35-.66-2.87.78-4.1a3.71,3.71,0,0,0,.73-2.38,2.62,2.62,0,0,1,2.27-2.72,20.62,20.62,0,0,0,4.67-2.73A4.41,4.41,0,0,1,69.73,48.14Z"/></g><path class="cls-1" d="M3.12,41s0,.07,0,.1l0,.08-.05,0H.25a.27.27,0,0,1-.16-.06A.24.24,0,0,1,0,40.91V35.65a.26.26,0,0,1,.09-.23.27.27,0,0,1,.16-.06H2.93l.06,0a.08.08,0,0,1,0,0,.13.13,0,0,1,0,.08.41.41,0,0,1,0,.11.37.37,0,0,1,0,.11.09.09,0,0,1,0,.07.1.1,0,0,1,0,.05H.55v2H2.6l.07,0s0,0,0,0l0,.08s0,.07,0,.11,0,.07,0,.1l0,.07s0,0,0,0l-.07,0h-2V40.7H3l.06,0,.05,0,0,.08S3.12,40.91,3.12,41Z"/><path class="cls-1" d="M7.43,40a1.24,1.24,0,0,1-.11.52,1,1,0,0,1-.31.39,1.22,1.22,0,0,1-.48.25,2,2,0,0,1-.61.09,1.7,1.7,0,0,1-.4,0,2.44,2.44,0,0,1-.34-.08A2.26,2.26,0,0,1,4.92,41l-.16-.11a.3.3,0,0,1-.07-.11.74.74,0,0,1,0-.18.31.31,0,0,1,0-.1s0-.06,0-.08a.1.1,0,0,1,0-.05h0a.3.3,0,0,1,.14.06l.24.14a2.73,2.73,0,0,0,.33.14A1.53,1.53,0,0,0,6,40.8a1.46,1.46,0,0,0,.38,0,1,1,0,0,0,.3-.13.6.6,0,0,0,.19-.23.72.72,0,0,0,.07-.33.53.53,0,0,0-.09-.32.84.84,0,0,0-.23-.23,1.54,1.54,0,0,0-.34-.17l-.38-.16L5.47,39a1.5,1.5,0,0,1-.33-.23A1,1,0,0,1,4.81,38a1.08,1.08,0,0,1,.33-.78A1.24,1.24,0,0,1,5.57,37a1.74,1.74,0,0,1,.63-.1l.3,0,.27.07A.63.63,0,0,1,7,37a.49.49,0,0,1,.13.08.22.22,0,0,1,.07.06l0,0s0,0,0,.07v.19s0,0,0,.07a.1.1,0,0,1,0,0h0a.17.17,0,0,1-.11,0,1.09,1.09,0,0,0-.19-.1,1.49,1.49,0,0,0-.28-.11,1.07,1.07,0,0,0-.37,0,1.07,1.07,0,0,0-.37,0,.66.66,0,0,0-.42.35.75.75,0,0,0,0,.26.59.59,0,0,0,.09.34.76.76,0,0,0,.24.23,1.74,1.74,0,0,0,.33.18l.39.15.38.17a1.66,1.66,0,0,1,.34.22,1,1,0,0,1,.33.76Z"/><path class="cls-1" d="M11.08,40.86a.66.66,0,0,1,0,.15.19.19,0,0,1-.05.09l-.1.07-.15,0-.18,0H10.4a1.52,1.52,0,0,1-.51-.08.86.86,0,0,1-.34-.25,1,1,0,0,1-.2-.41,2.64,2.64,0,0,1-.06-.6V37.38H8.68a.09.09,0,0,1-.09-.05.29.29,0,0,1,0-.17.31.31,0,0,1,0-.1.09.09,0,0,1,0-.07.1.1,0,0,1,0-.05h.66v-1a.09.09,0,0,1,0,0,.08.08,0,0,1,0,0l.09,0h.26l.08,0a.08.08,0,0,1,0,0,.09.09,0,0,1,0,0v1H11l.05.05a.14.14,0,0,1,0,.07.31.31,0,0,1,0,.1.29.29,0,0,1,0,.17.09.09,0,0,1-.09.05H9.82v2.47a1.51,1.51,0,0,0,.14.71.5.5,0,0,0,.48.24l.2,0,.15-.05.11,0a.16.16,0,0,1,.09,0h0l0,0,0,.06Z"/><path class="cls-1" d="M73.45,39.89a.34.34,0,0,1,0,.1l0,.08a.12.12,0,0,1,0,0l-.07,0H70.07L70,40.08A.15.15,0,0,1,70,40a.37.37,0,0,1,0-.11v-.11a.24.24,0,0,1,0-.08l0-.07.06-.08,1.19-1.26a8.64,8.64,0,0,0,.71-.83,4.69,4.69,0,0,0,.4-.67,2.43,2.43,0,0,0,.18-.54,2.58,2.58,0,0,0,0-.46,1.35,1.35,0,0,0-.07-.41,1.13,1.13,0,0,0-.21-.35,1.06,1.06,0,0,0-.79-.32,1.6,1.6,0,0,0-.51.08,1.76,1.76,0,0,0-.39.18l-.28.17a.4.4,0,0,1-.17.08h-.05l0-.05a.64.64,0,0,1,0-.07s0-.06,0-.1,0-.07,0-.09,0,0,0-.07l0-.06.06-.07.18-.12a2.26,2.26,0,0,1,.31-.15,2.59,2.59,0,0,1,.42-.14,1.84,1.84,0,0,1,.47-.06,1.78,1.78,0,0,1,.72.13,1.48,1.48,0,0,1,.5.32,1.22,1.22,0,0,1,.3.48,1.65,1.65,0,0,1,.1.58,3.64,3.64,0,0,1,0,.56,2.48,2.48,0,0,1-.2.6,3.77,3.77,0,0,1-.45.72,8.74,8.74,0,0,1-.78.92l-1.06,1.11h2.66a.07.07,0,0,1,.06,0l.06,0,0,.08A.31.31,0,0,1,73.45,39.89Z"/><path class="cls-1" d="M79,37.22a6.4,6.4,0,0,1-.1,1.2,2.8,2.8,0,0,1-.35.95,1.63,1.63,0,0,1-.63.62,1.83,1.83,0,0,1-1,.23,2.06,2.06,0,0,1-.9-.19,1.53,1.53,0,0,1-.59-.57,3,3,0,0,1-.33-.94,8.05,8.05,0,0,1-.1-1.29,6.44,6.44,0,0,1,.11-1.2,2.8,2.8,0,0,1,.34-1,1.75,1.75,0,0,1,.62-.62,1.89,1.89,0,0,1,1-.23,1.86,1.86,0,0,1,.89.2,1.37,1.37,0,0,1,.6.57,2.82,2.82,0,0,1,.33.93A7,7,0,0,1,79,37.22Zm-.58.05q0-.45,0-.81a5.26,5.26,0,0,0-.1-.65,2,2,0,0,0-.19-.49,1.18,1.18,0,0,0-.26-.35.94.94,0,0,0-.35-.2A1.29,1.29,0,0,0,77,34.7a1.18,1.18,0,0,0-.72.21,1.43,1.43,0,0,0-.43.56,2.94,2.94,0,0,0-.21.79c0,.3,0,.61,0,.92a7.84,7.84,0,0,0,.07,1.16,2.83,2.83,0,0,0,.25.79,1.14,1.14,0,0,0,.42.47,1.29,1.29,0,0,0,.64.15,1.16,1.16,0,0,0,.51-.1,1.12,1.12,0,0,0,.38-.26,1.69,1.69,0,0,0,.26-.41,2.35,2.35,0,0,0,.16-.51,3.38,3.38,0,0,0,.08-.58C78.41,37.69,78.41,37.48,78.41,37.27Z"/><path class="cls-1" d="M84.11,39.92s0,.07,0,.1a.43.43,0,0,1,0,.07l0,0H81l0,0,0-.07a.3.3,0,0,1,0-.1s0-.07,0-.1a.2.2,0,0,1,0-.08l0,0,.06,0H82.3V34.9l-1.23.75a.28.28,0,0,1-.12.05.08.08,0,0,1-.07,0,.08.08,0,0,1,0-.07.45.45,0,0,1,0-.12v-.11a.19.19,0,0,1,0-.07l0-.05,0,0,1.4-.89,0,0h.34l.08,0,0,0a.09.09,0,0,1,0,0v5.29H84l.06,0,0,0,0,.08S84.11,39.88,84.11,39.92Z"/><path class="cls-1" d="M89.42,37a6.81,6.81,0,0,1,0,.78,4.42,4.42,0,0,1-.16.74,2.83,2.83,0,0,1-.3.66,1.92,1.92,0,0,1-.45.53,2.21,2.21,0,0,1-.64.36,2.76,2.76,0,0,1-.85.13,2.22,2.22,0,0,1-.37,0,1.52,1.52,0,0,1-.32-.06,1,1,0,0,1-.23-.07.5.5,0,0,1-.13-.07.21.21,0,0,1-.06-.1.34.34,0,0,1,0-.15v-.11s0-.05,0-.06l0,0H86l.13,0,.22.08.32.07a1.76,1.76,0,0,0,.42,0,1.62,1.62,0,0,0,.81-.19,1.55,1.55,0,0,0,.55-.5,2.12,2.12,0,0,0,.33-.73,3.45,3.45,0,0,0,.12-.87,3.19,3.19,0,0,1-.61.26,2.48,2.48,0,0,1-.81.11,2.23,2.23,0,0,1-.83-.13,1.67,1.67,0,0,1-.54-.37,1.55,1.55,0,0,1-.28-.54,2.84,2.84,0,0,1-.08-.66,2.37,2.37,0,0,1,.1-.7,1.72,1.72,0,0,1,.33-.61,1.62,1.62,0,0,1,.59-.42,2.09,2.09,0,0,1,.88-.17,1.69,1.69,0,0,1,1.08.36A1.6,1.6,0,0,1,89,35a2.27,2.27,0,0,1,.23.55,4.56,4.56,0,0,1,.13.68A6.46,6.46,0,0,1,89.42,37ZM88.85,37a5.37,5.37,0,0,0-.09-1.06,2.18,2.18,0,0,0-.26-.7,1,1,0,0,0-.41-.39,1.2,1.2,0,0,0-.57-.13,1.14,1.14,0,0,0-.57.13,1.12,1.12,0,0,0-.39.32,1.45,1.45,0,0,0-.22.45,2.07,2.07,0,0,0-.07.49,1.79,1.79,0,0,0,.07.53,1.12,1.12,0,0,0,.2.41,1.09,1.09,0,0,0,.38.27,1.62,1.62,0,0,0,.57.09,2.25,2.25,0,0,0,.74-.11A1.88,1.88,0,0,0,88.85,37Z"/></g></g></svg>