<svg xmlns="http://www.w3.org/2000/svg" viewBox="0 0 16 16"><defs><style>.cls-1{fill:#1700d4;}.cls-2{fill:#fff;}</style></defs><g id="Layer_2" data-name="Layer 2"><g id="Layer_1-2" data-name="Layer 1"><rect class="cls-1" width="16" height="16"/><g id="Layer_1-2-2" data-name="Layer 1-2"><path class="cls-2" d="M11.24,7.54a1.94,1.94,0,0,1-.3.57h0a1.86,1.86,0,0,1-.27.29,3.19,3.19,0,0,0-.4.42l-.08.12a.53.53,0,0,0,0,.58c.09.18,0,.57-.1.66s-.21.16-.31.22a.15.15,0,0,0-.05.2c.08.22.06.26-.13.37h0a.18.18,0,0,0-.07.1.82.82,0,0,1-.15.36l-.15-.34,0-.08-.12-.25a.06.06,0,0,1,0-.06.13.13,0,0,0,0-.18A1.71,1.71,0,0,0,9,10.39l-.08-.13A1.75,1.75,0,0,0,8.8,10l-.31-.51a.05.05,0,0,1,0,0,.93.93,0,0,0-.12-.33l-.21-.42h0l-.24-.39a.22.22,0,0,1,0-.22.57.57,0,0,1,.08-.13.06.06,0,0,0,0-.07.16.16,0,0,1,0-.07,2.12,2.12,0,0,0-.11-.21.13.13,0,0,1,0-.06,2.52,2.52,0,0,1,.14-.33,2.88,2.88,0,0,0,.2-.56.49.49,0,0,1,0-.11.16.16,0,0,1,.06-.08l.26-.2.15-.11a0,0,0,0,0,0,0s0,0,0,0,0,0,0,0V6s0,0,0,0L8.62,6,8.53,6l-.17.06h0l0,0s0,0,0,0,0,0,0,0h0L8.28,6l0,0-.1,0-.05,0s0,0-.05,0A.11.11,0,0,0,7.94,6h0s0,0,0,0,0,0,0,.05v.16a.31.31,0,0,1,0,.21l0,.06a3.28,3.28,0,0,1-.2.31,1,1,0,0,0-.21.38.23.23,0,0,1,0,.11.88.88,0,0,0-.05.15.38.38,0,0,1-.08.17.31.31,0,0,0-.09-.18.06.06,0,0,1,0-.07c0-.06,0-.11-.09-.1H7V7.19l0,0a.14.14,0,0,0,0-.06L6.84,7a.43.43,0,0,0-.31-.16.76.76,0,0,0-.44.13,1.52,1.52,0,0,0-.4.4.68.68,0,0,0-.14.31.47.47,0,0,0,0,.26.55.55,0,0,1-.27-.29.37.37,0,0,0-.13-.15.51.51,0,0,1-.15-.62.47.47,0,0,0,0-.33.23.23,0,0,1,0-.26l.29-.44s.07,0,.1-.05.22-.12.21-.29a.34.34,0,0,1,.13-.2A1.55,1.55,0,0,1,6,5.09,1.44,1.44,0,0,0,6.5,5a2,2,0,0,1,.73-.12h.33a3,3,0,0,0,0,.33,2.3,2.3,0,0,1,.25.08l.21.1.34.14s.07-.05.08-.08.13-.18.27-.13a2.49,2.49,0,0,0,.55.16,1.83,1.83,0,0,0,.47,0c.07.14.1.25-.06.37l.29.53,0,.06c.07.18.14.36.23.54a2.29,2.29,0,0,0,.27.27s0,.11.07.15.13.12.19.11a5.12,5.12,0,0,0,.54-.1A.29.29,0,0,1,11.24,7.54Z"/><path class="cls-2" d="M11.61,9.82c-.15.22-.24.48-.37.71a.42.42,0,0,1-.18.17l-.05,0h0c-.06,0-.15-.08-.15-.12s-.07-.29.08-.42A.34.34,0,0,0,11,10a.28.28,0,0,1,.24-.28,1.72,1.72,0,0,0,.47-.28A.44.44,0,0,1,11.61,9.82Z"/></g><path class="cls-2" d="M14,7.64H11.9V7.53h1.94a5.72,5.72,0,0,0-11.25,0H4.46v.11h-2V7.58a5.84,5.84,0,0,1,11.5,0Z"/><path class="cls-2" d="M3,8.55v0H2.66V8h0v.22H3v0H2.71v.25H3Z"/><path class="cls-2" d="M3.45,8.45a.11.11,0,0,1,0,.06l0,0-.05,0H3.21l0,0h0v0h0l0,0h.16l0,0v0a.06.06,0,0,0,0,0l0,0,0,0h0l0,0,0,0,0,0a.13.13,0,0,1,0-.1l0,0s0,0,0,0h0l0,0,0,0v0a0,0,0,0,0,0,0l0,0,0,0h0l0,0,0,0a.05.05,0,0,1,0,0A.06.06,0,0,1,3.45,8.45Z"/><path class="cls-2" d="M3.84,8.54v0H3.72l0,0a.05.05,0,0,1,0,0,.15.15,0,0,1,0-.07V8.17H3.58v0h.08V8h.06v.1h.13v0H3.71v.27a.15.15,0,0,0,0,.07.05.05,0,0,0,0,0h.07Z"/><path class="cls-2" d="M12.11,8.58h-.36l.13-.14L12,8.32l0-.07s0,0,0-.06v0a.06.06,0,0,0,0,0l0,0,0,0h-.11l0,0h0l0,0,0,0H12a.1.1,0,0,1,0,0,.05.05,0,0,1,0,.05.13.13,0,0,1,0,.06V8.2a.14.14,0,0,1,0,.06.35.35,0,0,1-.05.08l-.08.1-.12.12h.3Z"/><path class="cls-2" d="M12.71,8.3s0,.09,0,.13a.42.42,0,0,1,0,.1.13.13,0,0,1-.07.06.15.15,0,0,1-.1,0l-.1,0-.06-.06a.17.17,0,0,1,0-.1.59.59,0,0,1,0-.14.51.51,0,0,1,0-.13.29.29,0,0,1,0-.1A.23.23,0,0,1,12.4,8l.1,0a.16.16,0,0,1,.1,0,.12.12,0,0,1,.06.06.3.3,0,0,1,0,.1S12.71,8.24,12.71,8.3Zm-.06,0a.19.19,0,0,0,0-.08.15.15,0,0,0,0-.07.14.14,0,0,0,0-.06l0,0,0,0H12.5l-.08,0-.05.06s0,.05,0,.08v.23l0,.08,0,.05.06,0h.06l0,0,0,0s0,0,0-.06V8.37A.17.17,0,0,0,12.65,8.3Z"/><path class="cls-2" d="M13.25,8.58h-.36L13,8.41l.07-.09.05-.07s0,0,0-.06v0a.06.06,0,0,0,0,0l0,0,0,0H13l0,0h0l0,0L13,8h.12l.06,0,0,.05a.13.13,0,0,1,0,.06V8.2s0,0,0,.06l0,.08-.09.1L13,8.56h.3Z"/><path class="cls-2" d="M13.83,8.59h-.35v0h.15V8.05l-.13.08h0L13.64,8h0v.57h.14Z"/><path class="cls-2" d="M8.22,13.89A5.83,5.83,0,0,1,2.47,9.07V9h2v.11H2.59a5.73,5.73,0,0,0,11.25,0H11.91V9H14v.06A5.84,5.84,0,0,1,8.22,13.89Z"/><path class="cls-2" d="M2.49,5.78l.07,0a.12.12,0,0,1,0,0l0,.07a.15.15,0,0,1,0,.07.25.25,0,0,1,0,.08.16.16,0,0,1,0,.08l-.09.23,0,0h0L1.7,6.1l0,0V6l.08-.2a.35.35,0,0,1,.07-.11.27.27,0,0,1,.08-.07l.08,0,.1,0,.06,0s0,0,0,0,0,0,0,0a.13.13,0,0,1,0,.06l0,0a.11.11,0,0,1,.07,0,.11.11,0,0,1,.08,0A.11.11,0,0,1,2.49,5.78ZM2,5.79,2,5.77H1.93l-.05,0,0,.07L1.79,6l.28.11L2.12,6a.25.25,0,0,0,0-.07.13.13,0,0,0,0-.06.08.08,0,0,0,0,0A.05.05,0,0,0,2,5.79Zm.41.11-.07,0-.06,0-.06,0a.36.36,0,0,0,0,.09l0,.13.3.13.06-.17a.1.1,0,0,0,0-.07s0,0,0-.06l0,0Z"/><path class="cls-2" d="M2.85,5.64h0v0l0,0v0h0L2,5.29H2V5.2H2Z"/><path class="cls-2" d="M3.24,5h0V5l0,0v0h0L3.12,5a.76.76,0,0,1,0,.14.35.35,0,0,1,0,.11L3,5.37l-.09,0-.09,0-.11,0-.32-.22h0v0l0,0h0l.31.2.08,0H3a.1.1,0,0,0,0,0,.12.12,0,0,0,0-.09L3,5l-.38-.25h0v0l0,0v0l0,0h0Z"/><path class="cls-2" d="M3.2,4h0l.33.55v0h0s0,0,0,0l0,0,0,0h0l-.61-.22h0v0h0v0l0,0h0l.53.19h0l-.3-.47h0v0h0l0,0,0,0h0Z"/><path class="cls-2" d="M4.1,4h0v0l0,0,0,0H4L4,4.07a.2.2,0,0,1,0,.11.21.21,0,0,1-.06.1.18.18,0,0,1-.07,0l-.08,0a.09.09,0,0,1-.07,0,.12.12,0,0,1-.07,0,.17.17,0,0,1,0-.17.26.26,0,0,1,0-.1.41.41,0,0,1,.09-.1l.06-.06,0,0a.1.1,0,0,0,0,0l-.05,0h0l-.06,0,0,.06s0,0,0,.06l0,0s0,0,0,0h0l0,0V4s0,0,0,0a.08.08,0,0,1,0,0s0,0,0-.05a.21.21,0,0,1,0-.06l0-.06a.46.46,0,0,1,.1-.07.15.15,0,0,1,.09,0,.13.13,0,0,1,.08,0,.24.24,0,0,1,.08.06Zm-.29-.12L3.74,4a.34.34,0,0,0-.06.06.14.14,0,0,0,0,.06v0l0,0a.11.11,0,0,0,.08,0,.12.12,0,0,0,.08,0,.22.22,0,0,0,0-.08A.4.4,0,0,0,3.9,4Z"/><path class="cls-2" d="M4.15,3.21l0,0v0H4.12l0,0a0,0,0,0,0,0,0s0,0,0,0v.06a.22.22,0,0,0,0,.08l.27.33h0l0,0,0,0h0l-.4-.49h0v0h0l0,0h0a0,0,0,0,1,0,0h0L4,3.42V3.34a.07.07,0,0,1,0,0,.05.05,0,0,1,0,0,.05.05,0,0,1,0,0h.11Z"/><path class="cls-2" d="M5.06,3.31h0l0,0H5l0-.07a.5.5,0,0,1,0,.13.24.24,0,0,1-.08.09.19.19,0,0,1-.12,0,.21.21,0,0,1-.11,0l-.1-.07a.39.39,0,0,1-.08-.1.42.42,0,0,1-.07-.13.32.32,0,0,1,0-.13.19.19,0,0,1,0-.1.24.24,0,0,1,.08-.09l.1,0h.12l-.21-.31h0l0,0,0,0h0ZM4.71,3,4.58,3a.16.16,0,0,0-.09,0s0,0,0,.06a.17.17,0,0,0,0,.07.19.19,0,0,0,0,.08.2.2,0,0,0,0,.08l.06.08a.18.18,0,0,0,.07.05l.07,0,.08,0,0,0,0,0a.35.35,0,0,0,0-.06.15.15,0,0,0,0-.07Z"/><path class="cls-2" d="M6,2.82v0H6v0H6l-.4.18h0s0,0,0,0l-.34-.75a.08.08,0,0,1,0,0l0,0L5.59,2h0v.06h0l-.33.15.12.26.28-.13h0v.06h0l-.28.13.14.3.33-.15H6Z"/><path class="cls-2" d="M6.64,2.63h-.1l0-.08a.41.41,0,0,1-.07.11.26.26,0,0,1-.11.07.25.25,0,0,1-.12,0,.19.19,0,0,1-.1,0A.36.36,0,0,1,6,2.63a.33.33,0,0,1,0-.12.4.4,0,0,1,0-.15.25.25,0,0,1,0-.12A.21.21,0,0,1,6,2.14l.1-.06a.21.21,0,0,1,.11,0,.3.3,0,0,1,.11,0l-.12-.36h.12Zm-.25-.39a.45.45,0,0,0-.12-.06.17.17,0,0,0-.1,0s0,0-.06,0a.09.09,0,0,0,0,.07.22.22,0,0,0,0,.08s0,.06,0,.09a.36.36,0,0,0,0,.09.18.18,0,0,0,0,.07l.06,0h.08l0,0,0,0,0-.05,0-.07Z"/><path class="cls-2" d="M7.36,2.48H7.28a0,0,0,0,1,0,0h0V2.42a.45.45,0,0,1-.09.1.24.24,0,0,1-.1,0,.2.2,0,0,1-.11,0,.2.2,0,0,1-.08,0L6.8,2.45l0-.12L6.7,2h.11l.07.37,0,.08a.33.33,0,0,0,0,.06l0,0h.06a.14.14,0,0,0,.08-.05.52.52,0,0,0,.08-.11l-.09-.44h.12Z"/><path class="cls-2" d="M8,2.33v0H8l0,0,0,0,0,0H7.79a.24.24,0,0,1-.12,0,.21.21,0,0,1-.1-.06l-.06-.1s0-.09,0-.15a.76.76,0,0,1,0-.16.34.34,0,0,1,.06-.12.22.22,0,0,1,.09-.07.35.35,0,0,1,.11,0h.12l0,0,0,0H8v0H8v0s0,0,0,0a0,0,0,0,1,0,0h0l0,0-.06,0H7.76a.13.13,0,0,0-.12.07.37.37,0,0,0,0,.2s0,.07,0,.1a.59.59,0,0,0,0,.08l.06,0H7.8l.07,0,0,0,0,0s0,0,0,0H8v0Z"/><path class="cls-2" d="M8.61,2.44v0H8.52a0,0,0,0,1,0,0V2.38l-.09.06a.22.22,0,0,1-.11,0H8.22l-.07,0a.18.18,0,0,1-.05-.07s0,0,0-.08a.14.14,0,0,1,0-.09.13.13,0,0,1,.06-.07l.1,0h.23V2A.13.13,0,0,0,8.5,2a.08.08,0,0,0,0-.05l-.05,0H8.29l-.06,0-.05,0h0s0,0,0,0v0a0,0,0,0,1,0,0l0,0,.05,0h.14l.12,0a.13.13,0,0,1,.07.05.22.22,0,0,1,0,.08s0,.06,0,.1ZM8.5,2.15H8.32l-.06,0a.08.08,0,0,0,0,0,.43.43,0,0,0,0,0,.11.11,0,0,0,0,.08.12.12,0,0,0,.09,0,.15.15,0,0,0,.09,0l.08-.07Z"/><path class="cls-2" d="M9.43,1.88s0,0,0,0v0l-.09.62H9.26L9.34,2,9,1.92l0,.35a.16.16,0,0,0,0,.1s0,0,.07,0h.09v0a0,0,0,0,1,0,0H9l-.08,0a.12.12,0,0,1-.05-.05.14.14,0,0,1,0-.07.33.33,0,0,1,0-.1l.05-.37h-.1V1.8h0l.09,0,0-.15h.12l0,.15Zm.08-.19a.08.08,0,0,1,0,.06.06.06,0,0,1-.06,0l-.06,0s0,0,0-.06a.08.08,0,0,1,0,0h.06l.05,0A.07.07,0,0,1,9.51,1.69Z"/><path class="cls-2" d="M10.22,2.42a.31.31,0,0,1-.06.13.39.39,0,0,1-.08.1l-.12,0a.38.38,0,0,1-.15,0,.23.23,0,0,1-.12-.06.18.18,0,0,1-.08-.09.27.27,0,0,1,0-.12,1,1,0,0,1,0-.15.31.31,0,0,1,.06-.13A.2.2,0,0,1,9.75,2,.22.22,0,0,1,9.86,2H10l.13.06a.28.28,0,0,1,.07.09.27.27,0,0,1,0,.12A.39.39,0,0,1,10.22,2.42Zm-.12,0a.44.44,0,0,0,0-.1.28.28,0,0,0,0-.09.16.16,0,0,0,0-.07L10,2.1H9.89l-.08,0a.15.15,0,0,0-.05.06.3.3,0,0,0,0,.1s0,.07,0,.1,0,.06,0,.08a.18.18,0,0,0,0,.07l.08,0a.17.17,0,0,0,.1,0,.11.11,0,0,0,.07,0,.18.18,0,0,0,.05-.07A.36.36,0,0,0,10.1,2.4Z"/><path class="cls-2" d="M10.79,3H10.7l0,0h0l.14-.34a.51.51,0,0,0,0-.09V2.45s0,0,0-.05a.1.1,0,0,0-.05,0h-.09l-.12.05-.17.42h-.06l0,0h0l.24-.59h.1l0,.08a.43.43,0,0,1,.13-.05l.11,0a.15.15,0,0,1,.09.06.17.17,0,0,1,.05.17.3.3,0,0,1,0,.12Z"/><path class="cls-2" d="M11.36,3.29H11.3l0,0h0l.43-.77h.07s0,0,0,0h0Z"/><path class="cls-2" d="M12,3.71h0l0,0,0,0h0l.21-.31a.18.18,0,0,0,.05-.08.13.13,0,0,0,0-.06.09.09,0,0,0,0,0s0,0-.05-.05l-.09,0-.12,0-.26.37h-.06l0,0,0,0h0l.37-.52H12l0,0h0L12,3a.23.23,0,0,1,.14,0,.17.17,0,0,1,.1,0,.3.3,0,0,1,.08.08.29.29,0,0,1,0,.09.28.28,0,0,1,0,.09s0,.07-.06.11Z"/><path class="cls-2" d="M12.24,3.91h-.06l0,0v0h0l.41-.49h0l0,0,0,0h0Zm.55-.65a.05.05,0,0,1,0,0l-.06,0a.05.05,0,0,1,0,0,.07.07,0,0,1,0-.06s0,0,.05,0l0,0s0,0,0,0S12.81,3.23,12.79,3.26Z"/><path class="cls-2" d="M13.25,4a.05.05,0,0,1,0,.06l-.44.44h0l0,0,0,0v0h0L13.12,4l-.23-.24L12.64,4a.33.33,0,0,0-.06.08s0,0,0,.07a0,0,0,0,0,0,0h0v0l0,0h-.06l0,0,0,0a.18.18,0,0,1,0-.07.08.08,0,0,1,0-.07.25.25,0,0,1,0-.07l.06-.07.26-.27-.06-.06s0,0,0,0l0,0,0,0h0l.06.06L13,3.47h0l0,0,0,0v0h0l-.1.1Zm.17-.1s0,0-.05,0l0,0a.09.09,0,0,1,0-.05s0,0,0,0l0,0s0,0,.05,0a.09.09,0,0,1,0,0A.09.09,0,0,1,13.42,3.85Z"/><path class="cls-2" d="M13.23,5a0,0,0,0,1,0,0h0l0,0,0,0h0s0,0,0,0l.05,0a.2.2,0,0,1-.11,0A.28.28,0,0,1,13,4.75a.2.2,0,0,1,0-.08.19.19,0,0,1,0-.08.25.25,0,0,1,0-.07L13,4.46a.18.18,0,0,1,.09,0,.14.14,0,0,1,.09,0l.09.05.09.1.06.07,0,0,0,0s0,0,0-.05a.11.11,0,0,0,0,0l0-.06-.06-.06-.06,0,0,0h0v0h.06l0,0,.05,0,.06,0,0,.05a.37.37,0,0,1,.06.1.28.28,0,0,1,0,.09.11.11,0,0,1,0,.08.6.6,0,0,1-.08.08Zm.16-.27-.06-.08-.06-.06,0,0a.06.06,0,0,0-.06,0l0,0a.12.12,0,0,0,0,.07.12.12,0,0,0,0,.09.12.12,0,0,0,.07,0,.18.18,0,0,0,.11,0Z"/><path class="cls-2" d="M14.19,5.25s0,0,0,0l0,0-.53.32h0l0,0v0h0l.48-.29L13.89,5l-.3.18a.3.3,0,0,0-.08.07.08.08,0,0,0,0,.08l0,0v0h0l0,0h-.07l0,0,0,0,0,0a.11.11,0,0,1,0-.08s0,0,0-.07l0-.06L13.51,5l.32-.19,0-.08s0,0,0,0l0,0h0l.05.08.13-.08h0v0l0,0v0h0L14,4.9Zm.19-.06a.06.06,0,0,1-.05,0s0,0-.05,0,0,0,0-.06,0,0,0,0,0,0,0,0,0,0,.05,0,0,0,0,.05S14.41,5.18,14.38,5.19Z"/><path class="cls-2" d="M14.52,6h0l-.64.05h0a0,0,0,0,0,0,0V6l0,0s0,0,0,0v0h0l.47-.44h.05v.09h0L13.92,6h0l.55,0h0l0,0V6h0Z"/><path class="cls-2" d="M14.46,6.78h-.05l0,0-.12-.4-.09,0-.06.05a.24.24,0,0,0,0,.08.18.18,0,0,0,0,.1l0,.07,0,.06s0,0,0,0a0,0,0,0,1,0,0h-.09l0,0,0,0,0-.06a.13.13,0,0,1,0-.08.24.24,0,0,1,0-.14.27.27,0,0,1,0-.12l.09-.09.14-.06a.24.24,0,0,1,.14,0l.13,0a.22.22,0,0,1,.09.07.27.27,0,0,1,.06.12.32.32,0,0,1,0,.13.3.3,0,0,1,0,.1.2.2,0,0,1-.08.08l-.1,0Zm0-.12a.21.21,0,0,0,.12-.08.14.14,0,0,0,0-.14.15.15,0,0,0,0-.07l-.06,0h-.15Z"/></g></g></svg>